<svg width="45" height="34" viewBox="0 0 45 34" fill="none" xmlns="http://www.w3.org/2000/svg">
<path d="M4.04494 31.25C1.51685 28.5 0 25.5 0 20.5C0 11.75 6.32023 4 15.1685 0L17.4438 3.25C9.10112 7.75 7.33146 13.5 6.82584 17.25C8.08989 16.5 9.85955 16.25 11.6292 16.5C16.1798 17 19.7191 20.5 19.7191 25.25C19.7191 27.5 18.7079 29.75 17.191 31.5C15.4213 33.25 13.3989 34 10.8708 34C8.08989 34 5.5618 32.75 4.04494 31.25ZM29.3258 31.25C26.7978 28.5 25.2809 25.5 25.2809 20.5C25.2809 11.75 31.6011 4 40.4494 0L42.7247 3.25C34.382 7.75 32.6124 13.5 32.1067 17.25C33.3708 16.5 35.1405 16.25 36.9101 16.5C41.4607 17 45 20.5 45 25.25C45 27.5 43.9888 29.75 42.4719 31.5C40.9551 33.25 38.6798 34 36.1517 34C33.3708 34 30.8427 32.75 29.3258 31.25Z" fill="#FF6B00"/>
</svg>
